FFmpeg version SVN-r25716, Copyright (c) 2000-2010 the FFmpeg developers  built on Nov 10 2010 12:23:18 with gcc 4.1.2 20080704 (Red Hat 4.1.2-48)  configuration: --enable-libmp3lame --enable-shared --disable-mmx --arch=x86_64  libavutil     50.33. 0 / 50.33. 0  libavcore      0.12. 1 /  0.12. 1  libavcodec    52.94. 4 / 52.94. 4  libavformat   52.84. 0 / 52.84. 0  libavdevice   52. 2. 2 / 52. 2. 2  libavfilter    1.59. 0 /  1.59. 0  libswscale     0.12. 0 /  0.12. 0Input #0, avi, from '/RAID10/data/converted_video_files/47391.avi':  Duration: 00:00:03.40, start: 0.000000, bitrate: 20982 kb/s    Stream #0.0: Video: msvideo1, rgb555le, 1024x1024, 20 tbr, 20 tbn, 20 tbc[buffer @ 0x6f963f0] w:1024 h:1024 pixfmt:rgb555le[ffsink @ 0x6fc3d80] auto-inserting filter 'auto-inserted scaler 0' between the filter 'src' and the filter 'out'[scale @ 0x6fc4070] w:1024 h:1024 fmt:rgb555le -> w:1024 h:1024 fmt:yuv420p flags:0x4Output #0, flv, to '/RAID10/data/converted_video_files/47391.flv':  Metadata:    encoder         : Lavf52.84.0    Stream #0.0: Video: flv, yuv420p, 1024x1024, q=2-31, 600 kb/s, 1k tbn, 24 tbcStream mapping:  Stream #0.0 -> #0.0Press [q] to stop encodingframe=    7 fps=  0 q=9.5 size=     593kB time=0.33 bitrate=14532.4kbits/s    frame=   17 fps= 15 q=31.0 size=     685kB time=0.83 bitrate=6734.6kbits/s    frame=   27 fps= 16 q=31.0 size=     756kB time=1.33 bitrate=4645.2kbits/s    frame=   35 fps= 16 q=31.0 size=     791kB time=1.75 bitrate=3705.7kbits/s    frame=   45 fps= 17 q=31.0 size=     837kB time=2.25 bitrate=3049.1kbits/s    frame=   53 fps= 17 q=31.0 size=     879kB time=2.62 bitrate=2745.5kbits/s    frame=   64 fps= 17 q=31.0 size=     924kB time=3.21 bitrate=2359.1kbits/s    frame=   68 fps= 17 q=31.0 Lsize=     929kB time=3.37 bitrate=2255.7kbits/s    video:928kB audio:0kB global headers:0kB muxing overhead 0.136625%